<?xml version="1.0" encoding="UTF-8"?>
<svg xmlns="http://www.w3.org/2000/svg" xmlns:xlink="http://www.w3.org/1999/xlink" width="px" height="512px" viewBox="0 0 507 512" version="1.1">
<defs>
<filter id="alpha" filterUnits="objectBoundingBox" x="0%" y="0%" width="100%" height="100%">
  <feColorMatrix type="matrix" in="SourceGraphic" values="0 0 0 0 1 0 0 0 0 1 0 0 0 0 1 0 0 0 1 0"/>
</filter>
<mask id="mask0">
  <g filter="url(#alpha)">
<rect x="0" y="0" width="507" height="512" style="fill:rgb(0%,0%,0%);fill-opacity:0.996078;stroke:none;"/>
  </g>
</mask>
<clipPath id="clip1">
  <rect x="0" y="0" width="507" height="512"/>
</clipPath>
<g id="surface5" clip-path="url(#clip1)">
<path style=" stroke:none;fill-rule:evenodd;fill:rgb(99.607843%,70.196078%,0%);fill-opacity:1;" d="M 251.710938 -0.359375 C 253.378906 -0.359375 255.050781 -0.359375 256.722656 -0.359375 C 262.117188 3.003906 266.773438 7.296875 270.6875 12.53125 C 278.003906 22.585938 284.566406 33.089844 290.378906 44.039062 C 298.335938 59.4375 303.945312 75.667969 307.207031 92.734375 C 307.910156 98.625 308.269531 104.351562 308.28125 109.917969 C 297.972656 122.429688 291.527344 136.75 288.945312 152.882812 C 266.058594 145.609375 243.144531 145.371094 220.203125 152.167969 C 217.621094 136.035156 211.175781 121.710938 200.867188 109.203125 C 201.261719 99.640625 202.574219 90.089844 204.804688 80.558594 C 208.25 69.382812 212.191406 58.402344 216.621094 47.621094 C 222.207031 36.453125 228.53125 25.710938 235.597656 15.394531 C 239.945312 9.019531 245.316406 3.769531 251.710938 -0.359375 Z M 251.710938 -0.359375 "/>
</g>
<mask id="mask1">
  <g filter="url(#alpha)">
<rect x="0" y="0" width="507" height="512" style="fill:rgb(0%,0%,0%);fill-opacity:0.988235;stroke:none;"/>
  </g>
</mask>
<clipPath id="clip2">
  <rect x="0" y="0" width="507" height="512"/>
</clipPath>
<g id="surface8" clip-path="url(#clip2)">
<path style=" stroke:none;fill-rule:evenodd;fill:rgb(100%,68.235294%,0%);fill-opacity:1;" d="M 357.691406 72.683594 C 346.519531 78.507812 335.777344 85.074219 325.46875 92.375 C 319.113281 97.652344 313.386719 103.503906 308.28125 109.917969 C 308.269531 104.351562 307.910156 98.625 307.207031 92.734375 C 303.945312 75.667969 298.335938 59.4375 290.378906 44.039062 C 300.511719 33.957031 311.730469 25.242188 324.035156 17.902344 C 329.132812 14.363281 334.625 13.410156 340.507812 15.039062 C 343.332031 17.464844 345.363281 20.445312 346.59375 23.988281 C 352.53125 39.707031 356.230469 55.9375 357.691406 72.683594 Z M 357.691406 72.683594 "/>
</g>
<mask id="mask2">
  <g filter="url(#alpha)">
<rect x="0" y="0" width="507" height="512" style="fill:rgb(0%,0%,0%);fill-opacity:0.988235;stroke:none;"/>
  </g>
</mask>
<clipPath id="clip3">
  <rect x="0" y="0" width="507" height="512"/>
</clipPath>
<g id="surface11" clip-path="url(#clip3)">
<path style=" stroke:none;fill-rule:evenodd;fill:rgb(100%,60%,0%);fill-opacity:1;" d="M 216.621094 47.621094 C 212.191406 58.402344 208.25 69.382812 204.804688 80.558594 C 202.574219 90.089844 201.261719 99.640625 200.867188 109.203125 C 192.011719 98.316406 181.507812 89.367188 169.359375 82.351562 C 161.261719 77.953125 153.148438 73.777344 145.011719 69.816406 C 146.476562 58.304688 148.746094 46.847656 151.8125 35.445312 C 153.300781 30.265625 155.210938 25.253906 157.542969 20.410156 C 160.429688 15.011719 164.84375 13.222656 170.789062 15.039062 C 180.914062 19.5 190.222656 25.230469 198.71875 32.222656 C 204.804688 37.238281 210.773438 42.371094 216.621094 47.621094 Z M 216.621094 47.621094 "/>
</g>
<mask id="mask3">
  <g filter="url(#alpha)">
<rect x="0" y="0" width="507" height="512" style="fill:rgb(0%,0%,0%);fill-opacity:0.996078;stroke:none;"/>
  </g>
</mask>
<clipPath id="clip4">
  <rect x="0" y="0" width="507" height="512"/>
</clipPath>
<g id="surface14" clip-path="url(#clip4)">
<path style=" stroke:none;fill-rule:evenodd;fill:rgb(99.607843%,75.294118%,13.72549%);fill-opacity:1;" d="M 145.011719 69.816406 C 153.148438 73.777344 161.261719 77.953125 169.359375 82.351562 C 181.507812 89.367188 192.011719 98.316406 200.867188 109.203125 C 211.175781 121.710938 217.621094 136.035156 220.203125 152.167969 C 194.929688 160.507812 175.117188 175.785156 160.765625 197.996094 C 154.242188 191.503906 146.605469 186.613281 137.847656 183.316406 C 132.445312 181.355469 126.957031 179.6875 121.378906 178.304688 C 120.753906 177.554688 120.039062 176.960938 119.230469 176.515625 C 111.867188 168.285156 106.019531 158.976562 101.6875 148.585938 C 97.984375 138.785156 94.523438 129 91.304688 119.226562 C 88.054688 105.332031 86.144531 91.25 85.574219 76.980469 C 84.835938 70.667969 86.03125 64.816406 89.15625 59.433594 C 90.109375 58.957031 91.066406 58.480469 92.019531 58.003906 C 101.796875 57.234375 111.34375 58.429688 120.664062 61.582031 C 128.871094 64.136719 136.984375 66.882812 145.011719 69.816406 Z M 145.011719 69.816406 "/>
</g>
<mask id="mask4">
  <g filter="url(#alpha)">
<rect x="0" y="0" width="507" height="512" style="fill:rgb(0%,0%,0%);fill-opacity:0.996078;stroke:none;"/>
  </g>
</mask>
<clipPath id="clip5">
  <rect x="0" y="0" width="507" height="512"/>
</clipPath>
<g id="surface17" clip-path="url(#clip5)">
<path style=" stroke:none;fill-rule:evenodd;fill:rgb(99.607843%,75.294118%,13.72549%);fill-opacity:1;" d="M 417.84375 118.511719 C 414.160156 129.683594 410.222656 140.902344 406.03125 152.167969 C 401.894531 161.644531 396.523438 170.234375 389.917969 177.945312 C 380.53125 187.679688 369.792969 195.675781 357.691406 201.9375 C 354.878906 202.992188 352.015625 203.828125 349.097656 204.441406 C 340.695312 189.113281 329.238281 176.460938 314.726562 166.488281 C 306.746094 160.828125 298.152344 156.292969 288.945312 152.882812 C 291.527344 136.75 297.972656 122.429688 308.28125 109.917969 C 313.386719 103.503906 319.113281 97.652344 325.46875 92.375 C 335.777344 85.074219 346.519531 78.507812 357.691406 72.683594 C 370.203125 67.269531 383.09375 62.851562 396.363281 59.433594 C 402.96875 57.839844 409.652344 57.363281 416.414062 58.003906 C 420.097656 59.789062 422.125 62.773438 422.5 66.953125 C 423.046875 76.046875 422.804688 85.113281 421.785156 94.164062 C 420.605469 102.3125 419.292969 110.425781 417.84375 118.511719 Z M 417.84375 118.511719 "/>
</g>
<mask id="mask5">
  <g filter="url(#alpha)">
<rect x="0" y="0" width="507" height="512" style="fill:rgb(0%,0%,0%);fill-opacity:0.988235;stroke:none;"/>
  </g>
</mask>
<clipPath id="clip6">
  <rect x="0" y="0" width="507" height="512"/>
</clipPath>
<g id="surface20" clip-path="url(#clip6)">
<path style=" stroke:none;fill-rule:evenodd;fill:rgb(100%,68.235294%,0%);fill-opacity:1;" d="M 451.503906 182.242188 C 441.578125 179.949219 431.550781 178.15625 421.425781 176.871094 C 410.875 176.199219 400.371094 176.554688 389.917969 177.945312 C 396.523438 170.234375 401.894531 161.644531 406.03125 152.167969 C 410.222656 140.902344 414.160156 129.683594 417.84375 118.511719 C 430.761719 117.480469 443.652344 117.839844 456.515625 119.585938 C 462.914062 120.046875 468.523438 122.3125 473.34375 126.390625 C 474.371094 129.1875 474.609375 132.050781 474.058594 134.980469 C 469.019531 151.980469 461.5 167.734375 451.503906 182.242188 Z M 451.503906 182.242188 "/>
</g>
<mask id="mask6">
  <g filter="url(#alpha)">
<rect x="0" y="0" width="507" height="512" style="fill:rgb(0%,0%,0%);fill-opacity:0.988235;stroke:none;"/>
  </g>
</mask>
<clipPath id="clip7">
  <rect x="0" y="0" width="507" height="512"/>
</clipPath>
<g id="surface23" clip-path="url(#clip7)">
<path style=" stroke:none;fill-rule:evenodd;fill:rgb(100%,68.235294%,0%);fill-opacity:1;" d="M 91.304688 119.226562 C 94.523438 129 97.984375 138.785156 101.6875 148.585938 C 106.019531 158.976562 111.867188 168.285156 119.230469 176.515625 C 118.933594 176.960938 118.453125 177.199219 117.796875 177.230469 C 102.710938 174.457031 87.675781 174.8125 72.683594 178.304688 C 65.660156 179.761719 58.738281 181.550781 51.917969 183.675781 C 44.007812 171.683594 37.207031 159.03125 31.507812 145.722656 C 29.984375 141.535156 28.910156 137.238281 28.285156 132.832031 C 28.574219 126.941406 31.675781 123.480469 37.59375 122.449219 C 55.332031 118.742188 73.238281 117.667969 91.304688 119.226562 Z M 91.304688 119.226562 "/>
</g>
<mask id="mask7">
  <g filter="url(#alpha)">
<rect x="0" y="0" width="507" height="512" style="fill:rgb(0%,0%,0%);fill-opacity:0.996078;stroke:none;"/>
  </g>
</mask>
<clipPath id="clip8">
  <rect x="0" y="0" width="507" height="512"/>
</clipPath>
<g id="surface26" clip-path="url(#clip8)">
<path style=" stroke:none;fill-rule:evenodd;fill:rgb(99.607843%,70.196078%,0%);fill-opacity:1;" d="M 119.230469 176.515625 C 120.039062 176.960938 120.753906 177.554688 121.378906 178.304688 C 126.957031 179.6875 132.445312 181.355469 137.847656 183.316406 C 146.605469 186.613281 154.242188 191.503906 160.765625 197.996094 C 147.359375 220.585938 142.347656 244.933594 145.726562 271.039062 C 129.875 270.824219 115.074219 274.640625 101.328125 282.496094 C 90.675781 280.816406 80.414062 277.59375 70.535156 272.828125 C 59.996094 267.085938 49.730469 261 39.742188 254.566406 C 28.363281 245.699219 17.742188 235.914062 7.878906 225.207031 C 6.027344 222.703125 4.355469 220.078125 2.863281 217.332031 C 0.804688 211.535156 2.355469 206.878906 7.519531 203.367188 C 21.339844 194.667969 36.140625 188.105469 51.917969 183.675781 C 58.738281 181.550781 65.660156 179.761719 72.683594 178.304688 C 87.675781 174.8125 102.710938 174.457031 117.796875 177.230469 C 118.453125 177.199219 118.933594 176.960938 119.230469 176.515625 Z M 119.230469 176.515625 "/>
</g>
<mask id="mask8">
  <g filter="url(#alpha)">
<rect x="0" y="0" width="507" height="512" style="fill:rgb(0%,0%,0%);fill-opacity:0.996078;stroke:none;"/>
  </g>
</mask>
<clipPath id="clip9">
  <rect x="0" y="0" width="507" height="512"/>
</clipPath>
<g id="surface29" clip-path="url(#clip9)">
<path style=" stroke:none;fill-rule:evenodd;fill:rgb(99.607843%,70.196078%,0%);fill-opacity:1;" d="M 451.503906 182.242188 C 466.636719 186.464844 481.199219 192.3125 495.183594 199.789062 C 500.054688 202.15625 503.875 205.617188 506.640625 210.171875 C 506.640625 211.839844 506.640625 213.511719 506.640625 215.183594 C 501.128906 225.070312 493.964844 233.78125 485.160156 241.320312 C 479.027344 246.625 472.820312 251.757812 466.539062 256.714844 C 456.03125 263.738281 445.050781 270.066406 433.597656 275.691406 C 425.097656 279.472656 416.265625 281.976562 407.105469 283.210938 C 394.347656 284.59375 381.699219 284 369.152344 281.421875 C 365.816406 280.464844 362.714844 279.152344 359.839844 277.484375 C 364.339844 251.882812 360.761719 227.535156 349.097656 204.441406 C 352.015625 203.828125 354.878906 202.992188 357.691406 201.9375 C 369.792969 195.675781 380.53125 187.679688 389.917969 177.945312 C 400.371094 176.554688 410.875 176.199219 421.425781 176.871094 C 431.550781 178.15625 441.578125 179.949219 451.503906 182.242188 Z M 451.503906 182.242188 "/>
</g>
<mask id="mask9">
  <g filter="url(#alpha)">
<rect x="0" y="0" width="507" height="512" style="fill:rgb(0%,0%,0%);fill-opacity:0.988235;stroke:none;"/>
  </g>
</mask>
<clipPath id="clip10">
  <rect x="0" y="0" width="507" height="512"/>
</clipPath>
<g id="surface32" clip-path="url(#clip10)">
<path style=" stroke:none;fill-rule:evenodd;fill:rgb(100%,60%,0%);fill-opacity:1;" d="M 39.742188 254.566406 C 49.730469 261 59.996094 267.085938 70.535156 272.828125 C 80.414062 277.59375 90.675781 280.816406 101.328125 282.496094 C 95.375 285.230469 89.886719 288.695312 84.859375 292.878906 C 73.117188 304.011719 62.613281 316.066406 53.347656 329.039062 C 36.210938 324.175781 19.980469 317.132812 4.65625 307.917969 C 2.816406 306.199219 1.144531 304.410156 -0.359375 302.546875 C -0.359375 300.160156 -0.359375 297.769531 -0.359375 295.382812 C 5.34375 286.6875 12.027344 278.691406 19.691406 271.394531 C 26.304688 265.613281 32.988281 260.003906 39.742188 254.566406 Z M 39.742188 254.566406 "/>
</g>
<mask id="mask10">
  <g filter="url(#alpha)">
<rect x="0" y="0" width="507" height="512" style="fill:rgb(0%,0%,0%);fill-opacity:0.988235;stroke:none;"/>
  </g>
</mask>
<clipPath id="clip11">
  <rect x="0" y="0" width="507" height="512"/>
</clipPath>
<g id="surface35" clip-path="url(#clip11)">
<path style=" stroke:none;fill-rule:evenodd;fill:rgb(100%,60%,0%);fill-opacity:1;" d="M 466.539062 256.714844 C 479.585938 266.058594 491.164062 277.039062 501.269531 289.65625 C 504.863281 294.382812 505.101562 299.15625 501.988281 303.976562 C 491.664062 311.828125 480.324219 317.914062 467.972656 322.238281 C 463.101562 324.300781 458.089844 325.851562 452.933594 326.890625 C 445.113281 316.4375 436.519531 306.53125 427.15625 297.175781 C 420.9375 291.78125 414.25 287.125 407.105469 283.210938 C 416.265625 281.976562 425.097656 279.472656 433.597656 275.691406 C 445.050781 270.066406 456.03125 263.738281 466.539062 256.714844 Z M 466.539062 256.714844 "/>
</g>
<mask id="mask11">
  <g filter="url(#alpha)">
<rect x="0" y="0" width="507" height="512" style="fill:rgb(0%,0%,0%);fill-opacity:0.996078;stroke:none;"/>
  </g>
</mask>
<clipPath id="clip12">
  <rect x="0" y="0" width="507" height="512"/>
</clipPath>
<g id="surface38" clip-path="url(#clip12)">
<path style=" stroke:none;fill-rule:evenodd;fill:rgb(99.607843%,75.294118%,13.72549%);fill-opacity:1;" d="M 145.726562 271.039062 C 147.664062 284.007812 151.722656 296.183594 157.902344 307.558594 C 163.925781 318.597656 171.5625 328.382812 180.816406 336.917969 C 168.769531 347.390625 159.699219 360.042969 153.605469 374.871094 C 133.5625 385.730469 112.078125 391.457031 89.15625 392.054688 C 77.464844 392.984375 65.769531 392.867188 54.066406 391.699219 C 48.421875 391.195312 42.929688 390 37.59375 388.117188 C 33.175781 386.566406 31.027344 383.460938 31.152344 378.808594 C 33.324219 368.132812 37.023438 357.984375 42.25 348.375 C 45.964844 341.890625 49.667969 335.445312 53.347656 329.039062 C 62.613281 316.066406 73.117188 304.011719 84.859375 292.878906 C 89.886719 288.695312 95.375 285.230469 101.328125 282.496094 C 115.074219 274.640625 129.875 270.824219 145.726562 271.039062 Z M 145.726562 271.039062 "/>
</g>
<mask id="mask12">
  <g filter="url(#alpha)">
<rect x="0" y="0" width="507" height="512" style="fill:rgb(0%,0%,0%);fill-opacity:0.996078;stroke:none;"/>
  </g>
</mask>
<clipPath id="clip13">
  <rect x="0" y="0" width="507" height="512"/>
</clipPath>
<g id="surface41" clip-path="url(#clip13)">
<path style=" stroke:none;fill-rule:evenodd;fill:rgb(99.607843%,75.294118%,13.72549%);fill-opacity:1;" d="M 359.839844 277.484375 C 362.714844 279.152344 365.816406 280.464844 369.152344 281.421875 C 381.699219 284 394.347656 284.59375 407.105469 283.210938 C 414.25 287.125 420.9375 291.78125 427.15625 297.175781 C 436.519531 306.53125 445.113281 316.4375 452.933594 326.890625 C 459.976562 337.628906 466.300781 348.847656 471.910156 360.546875 C 474.015625 365.664062 475.683594 370.914062 476.921875 376.300781 C 478.320312 382.789062 475.8125 386.964844 469.40625 388.832031 C 464.703125 390.15625 459.929688 391.109375 455.082031 391.699219 C 441.734375 392.65625 428.367188 393.011719 414.980469 392.773438 C 397.492188 391.445312 380.546875 387.507812 364.136719 380.957031 C 360.675781 379.109375 357.335938 377.078125 354.113281 374.871094 C 353.875 375.109375 353.632812 375.347656 353.394531 375.585938 C 357.113281 383.535156 359.382812 391.890625 360.199219 400.648438 C 361.65625 413.800781 361.539062 426.929688 359.839844 440.035156 C 358.804688 457.996094 354.625 475.183594 347.308594 491.589844 C 344.128906 496.59375 339.714844 498.148438 334.0625 496.246094 C 317.324219 487.746094 302.285156 476.886719 288.945312 463.664062 C 283.980469 457.859375 278.847656 452.128906 273.550781 446.476562 C 264.558594 435.898438 257.996094 423.960938 253.859375 410.675781 C 248.835938 395.484375 247.644531 379.96875 250.277344 364.128906 C 261.976562 364.328125 273.433594 362.777344 284.652344 359.472656 C 324.574219 345.691406 349.636719 318.363281 359.839844 277.484375 Z M 359.839844 277.484375 "/>
</g>
<mask id="mask13">
  <g filter="url(#alpha)">
<rect x="0" y="0" width="507" height="512" style="fill:rgb(0%,0%,0%);fill-opacity:0.996078;stroke:none;"/>
  </g>
</mask>
<clipPath id="clip14">
  <rect x="0" y="0" width="507" height="512"/>
</clipPath>
<g id="surface44" clip-path="url(#clip14)">
<path style=" stroke:none;fill-rule:evenodd;fill:rgb(99.607843%,70.196078%,0%);fill-opacity:1;" d="M 180.816406 336.917969 C 200.683594 354.121094 223.835938 363.191406 250.277344 364.128906 C 247.644531 379.96875 248.835938 395.484375 253.859375 410.675781 C 248.394531 426.132812 240.160156 439.976562 229.152344 452.207031 C 224.308594 456.6875 219.894531 461.460938 215.90625 466.527344 C 206.074219 475.621094 195.570312 483.855469 184.394531 491.234375 C 180.902344 493.101562 177.320312 494.769531 173.65625 496.246094 C 168.992188 497.503906 165.054688 496.429688 161.839844 493.023438 C 153.824219 475.769531 149.171875 457.628906 147.875 438.601562 C 145.542969 421.085938 146.140625 403.664062 149.664062 386.328125 C 150.914062 382.464844 152.226562 378.644531 153.605469 374.871094 C 159.699219 360.042969 168.769531 347.390625 180.816406 336.917969 Z M 180.816406 336.917969 "/>
</g>
<mask id="mask14">
  <g filter="url(#alpha)">
<rect x="0" y="0" width="507" height="512" style="fill:rgb(0%,0%,0%);fill-opacity:0.988235;stroke:none;"/>
  </g>
</mask>
<clipPath id="clip15">
  <rect x="0" y="0" width="507" height="512"/>
</clipPath>
<g id="surface47" clip-path="url(#clip15)">
<path style=" stroke:none;fill-rule:evenodd;fill:rgb(100%,68.235294%,0%);fill-opacity:1;" d="M 153.605469 374.871094 C 152.226562 378.644531 150.914062 382.464844 149.664062 386.328125 C 146.140625 403.664062 145.542969 421.085938 147.875 438.601562 C 131.34375 446.738281 113.917969 451.988281 95.597656 454.355469 C 92.472656 454.28125 89.609375 453.445312 87.007812 451.847656 C 85.707031 450.558594 84.871094 449.007812 84.5 447.195312 C 82.734375 428.550781 84.289062 410.171875 89.15625 392.054688 C 112.078125 391.457031 133.5625 385.730469 153.605469 374.871094 Z M 153.605469 374.871094 "/>
</g>
<mask id="mask15">
  <g filter="url(#alpha)">
<rect x="0" y="0" width="507" height="512" style="fill:rgb(0%,0%,0%);fill-opacity:0.988235;stroke:none;"/>
  </g>
</mask>
<clipPath id="clip16">
  <rect x="0" y="0" width="507" height="512"/>
</clipPath>
<g id="surface50" clip-path="url(#clip16)">
<path style=" stroke:none;fill-rule:evenodd;fill:rgb(100%,68.235294%,0%);fill-opacity:1;" d="M 414.980469 392.773438 C 420.027344 410.628906 421.582031 428.769531 419.636719 447.195312 C 417.65625 451.890625 414.074219 454.039062 408.894531 453.640625 C 391.855469 451.5 375.507812 446.964844 359.839844 440.035156 C 361.539062 426.929688 361.65625 413.800781 360.199219 400.648438 C 359.382812 391.890625 357.113281 383.535156 353.394531 375.585938 C 353.632812 375.347656 353.875 375.109375 354.113281 374.871094 C 357.335938 377.078125 360.675781 379.109375 364.136719 380.957031 C 380.546875 387.507812 397.492188 391.445312 414.980469 392.773438 Z M 414.980469 392.773438 "/>
</g>
<mask id="mask16">
  <g filter="url(#alpha)">
<rect x="0" y="0" width="507" height="512" style="fill:rgb(0%,0%,0%);fill-opacity:0.988235;stroke:none;"/>
  </g>
</mask>
<clipPath id="clip17">
  <rect x="0" y="0" width="507" height="512"/>
</clipPath>
<g id="surface53" clip-path="url(#clip17)">
<path style=" stroke:none;fill-rule:evenodd;fill:rgb(100%,60%,0%);fill-opacity:1;" d="M 253.859375 410.675781 C 257.996094 423.960938 264.558594 435.898438 273.550781 446.476562 C 278.847656 452.128906 283.980469 457.859375 288.945312 463.664062 C 281.628906 480.640625 271.605469 495.796875 258.871094 509.136719 C 257.277344 509.808594 255.84375 510.644531 254.574219 511.640625 C 253.140625 511.640625 251.710938 511.640625 250.277344 511.640625 C 244.925781 509.042969 240.507812 505.222656 237.03125 500.183594 C 228.976562 489.621094 221.9375 478.402344 215.90625 466.527344 C 219.894531 461.460938 224.308594 456.6875 229.152344 452.207031 C 240.160156 439.976562 248.394531 426.132812 253.859375 410.675781 Z M 253.859375 410.675781 "/>
</g>
</defs>
<g id="surface1">
<use xlink:href="#surface5" mask="url(#mask0)"/>
<use xlink:href="#surface8" mask="url(#mask1)"/>
<use xlink:href="#surface11" mask="url(#mask2)"/>
<use xlink:href="#surface14" mask="url(#mask3)"/>
<use xlink:href="#surface17" mask="url(#mask4)"/>
<use xlink:href="#surface20" mask="url(#mask5)"/>
<use xlink:href="#surface23" mask="url(#mask6)"/>
<path style=" stroke:none;fill-rule:evenodd;fill:rgb(43.529412%,33.333333%,26.27451%);fill-opacity:1;" d="M 288.945312 152.882812 C 298.152344 156.292969 306.746094 160.828125 314.726562 166.488281 C 314.414062 166.441406 314.175781 166.5625 314.011719 166.847656 C 335.128906 193.332031 340.5 222.8125 330.121094 255.285156 C 317.546875 289.816406 293.320312 311.179688 257.4375 319.375 C 232.277344 324.359375 207.453125 322.925781 182.964844 315.078125 C 175.566406 312.449219 168.164062 309.824219 160.765625 307.199219 C 159.644531 306.652344 158.6875 306.773438 157.902344 307.558594 C 151.722656 296.183594 147.664062 284.007812 145.726562 271.039062 C 142.347656 244.933594 147.359375 220.585938 160.765625 197.996094 C 175.117188 175.785156 194.929688 160.507812 220.203125 152.167969 C 243.144531 145.371094 266.058594 145.609375 288.945312 152.882812 Z M 288.945312 152.882812 "/>
<path style=" stroke:none;fill-rule:evenodd;fill:rgb(33.333333%,23.529412%,18.039216%);fill-opacity:1;" d="M 314.726562 166.488281 C 329.238281 176.460938 340.695312 189.113281 349.097656 204.441406 C 360.761719 227.535156 364.339844 251.882812 359.839844 277.484375 C 349.636719 318.363281 324.574219 345.691406 284.652344 359.472656 C 273.433594 362.777344 261.976562 364.328125 250.277344 364.128906 C 223.835938 363.191406 200.683594 354.121094 180.816406 336.917969 C 171.5625 328.382812 163.925781 318.597656 157.902344 307.558594 C 158.6875 306.773438 159.644531 306.652344 160.765625 307.199219 C 168.164062 309.824219 175.566406 312.449219 182.964844 315.078125 C 207.453125 322.925781 232.277344 324.359375 257.4375 319.375 C 293.320312 311.179688 317.546875 289.816406 330.121094 255.285156 C 340.5 222.8125 335.128906 193.332031 314.011719 166.847656 C 314.175781 166.5625 314.414062 166.441406 314.726562 166.488281 Z M 314.726562 166.488281 "/>
<use xlink:href="#surface26" mask="url(#mask7)"/>
<use xlink:href="#surface29" mask="url(#mask8)"/>
<use xlink:href="#surface32" mask="url(#mask9)"/>
<use xlink:href="#surface35" mask="url(#mask10)"/>
<use xlink:href="#surface38" mask="url(#mask11)"/>
<use xlink:href="#surface41" mask="url(#mask12)"/>
<use xlink:href="#surface44" mask="url(#mask13)"/>
<use xlink:href="#surface47" mask="url(#mask14)"/>
<use xlink:href="#surface50" mask="url(#mask15)"/>
<use xlink:href="#surface53" mask="url(#mask16)"/>
</g>
</svg>
